<svg width="21" height="19" viewBox="0 0 21 19" fill="none" xmlns="http://www.w3.org/2000/svg">
<path d="M20.7319 4.74063C20.6361 4.60216 20.5081 4.48899 20.359 4.41079C20.2099 4.3326 20.044 4.29173 19.8757 4.29167H5.63919L4.43711 1.40625C4.27949 1.02628 4.0126 0.701659 3.67026 0.473558C3.32792 0.245456 2.92556 0.124145 2.51419 0.125005H0.0839844V2.20834H2.51419L7.45586 14.0677C7.53501 14.2575 7.66854 14.4195 7.83963 14.5335C8.01073 14.6475 8.21173 14.7084 8.41732 14.7083H16.7507C17.185 14.7083 17.5736 14.4385 17.7267 14.0333L20.8517 5.70001C20.9108 5.54232 20.9307 5.37266 20.9098 5.20558C20.889 5.03849 20.8279 4.87895 20.7319 4.74063ZM16.0288 12.625H9.11211L6.50794 6.375H18.3725L16.0288 12.625Z" fill="white"/>
<path d="M8.9375 18.875C9.80044 18.875 10.5 18.1754 10.5 17.3125C10.5 16.4496 9.80044 15.75 8.9375 15.75C8.07456 15.75 7.375 16.4496 7.375 17.3125C7.375 18.1754 8.07456 18.875 8.9375 18.875Z" fill="white"/>
<path d="M16.2305 18.875C17.0934 18.875 17.793 18.1754 17.793 17.3125C17.793 16.4496 17.0934 15.75 16.2305 15.75C15.3675 15.75 14.668 16.4496 14.668 17.3125C14.668 18.1754 15.3675 18.875 16.2305 18.875Z" fill="white"/>
</svg>
