<svg width="74" height="14" viewBox="0 0 74 14" fill="none" xmlns="http://www.w3.org/2000/svg">
<path d="M20.1016 7.25586H17.9102L17.8984 6.04883H19.7383C20.0625 6.04883 20.3281 6.00781 20.5352 5.92578C20.7422 5.83984 20.8965 5.7168 20.998 5.55664C21.1035 5.39258 21.1562 5.19336 21.1562 4.95898C21.1562 4.69336 21.1055 4.47852 21.0039 4.31445C20.9062 4.15039 20.752 4.03125 20.541 3.95703C20.334 3.88281 20.0664 3.8457 19.7383 3.8457H18.5195V11H16.7617V2.46875H19.7383C20.2344 2.46875 20.6777 2.51562 21.0684 2.60938C21.4629 2.70312 21.7969 2.8457 22.0703 3.03711C22.3438 3.22852 22.5527 3.4707 22.6973 3.76367C22.8418 4.05273 22.9141 4.39648 22.9141 4.79492C22.9141 5.14648 22.834 5.4707 22.6738 5.76758C22.5176 6.06445 22.2695 6.30664 21.9297 6.49414C21.5938 6.68164 21.1543 6.78516 20.6113 6.80469L20.1016 7.25586ZM20.0254 11H17.4297L18.1152 9.62891H20.0254C20.334 9.62891 20.5859 9.58008 20.7812 9.48242C20.9766 9.38086 21.1211 9.24414 21.2148 9.07227C21.3086 8.90039 21.3555 8.70312 21.3555 8.48047C21.3555 8.23047 21.3125 8.01367 21.2266 7.83008C21.1445 7.64648 21.0117 7.50586 20.8281 7.4082C20.6445 7.30664 20.4023 7.25586 20.1016 7.25586H18.4082L18.4199 6.04883H20.5293L20.9336 6.52344C21.4531 6.51562 21.8711 6.60742 22.1875 6.79883C22.5078 6.98633 22.7402 7.23047 22.8848 7.53125C23.0332 7.83203 23.1074 8.1543 23.1074 8.49805C23.1074 9.04492 22.9883 9.50586 22.75 9.88086C22.5117 10.252 22.1621 10.5312 21.7012 10.7188C21.2441 10.9062 20.6855 11 20.0254 11ZM31.6504 7.2207V8.5332H28.4277V7.2207H31.6504ZM28.9902 4.66016V11H27.3027V4.66016H28.9902ZM32.793 4.66016V11H31.0996V4.66016H32.793ZM37.5273 9.57031V6.74609C37.5273 6.54297 37.4941 6.36914 37.4277 6.22461C37.3613 6.07617 37.2578 5.96094 37.1172 5.87891C36.9805 5.79688 36.8027 5.75586 36.584 5.75586C36.3965 5.75586 36.2344 5.78906 36.0977 5.85547C35.9609 5.91797 35.8555 6.00977 35.7812 6.13086C35.707 6.24805 35.6699 6.38672 35.6699 6.54688H33.9824C33.9824 6.27734 34.0449 6.02148 34.1699 5.7793C34.2949 5.53711 34.4766 5.32422 34.7148 5.14062C34.9531 4.95312 35.2363 4.80664 35.5645 4.70117C35.8965 4.5957 36.2676 4.54297 36.6777 4.54297C37.1699 4.54297 37.6074 4.625 37.9902 4.78906C38.373 4.95312 38.6738 5.19922 38.8926 5.52734C39.1152 5.85547 39.2266 6.26562 39.2266 6.75781V9.4707C39.2266 9.81836 39.248 10.1035 39.291 10.3262C39.334 10.5449 39.3965 10.7363 39.4785 10.9004V11H37.7734C37.6914 10.8281 37.6289 10.6133 37.5859 10.3555C37.5469 10.0938 37.5273 9.83203 37.5273 9.57031ZM37.75 7.13867L37.7617 8.09375H36.8184C36.5957 8.09375 36.4023 8.11914 36.2383 8.16992C36.0742 8.2207 35.9395 8.29297 35.834 8.38672C35.7285 8.47656 35.6504 8.58203 35.5996 8.70312C35.5527 8.82422 35.5293 8.95703 35.5293 9.10156C35.5293 9.24609 35.5625 9.37695 35.6289 9.49414C35.6953 9.60742 35.791 9.69727 35.916 9.76367C36.041 9.82617 36.1875 9.85742 36.3555 9.85742C36.6094 9.85742 36.8301 9.80664 37.0176 9.70508C37.2051 9.60352 37.3496 9.47852 37.4512 9.33008C37.5566 9.18164 37.6113 9.04102 37.6152 8.9082L38.0605 9.62305C37.998 9.7832 37.9121 9.94922 37.8027 10.1211C37.6973 10.293 37.5625 10.4551 37.3984 10.6074C37.2344 10.7559 37.0371 10.8789 36.8066 10.9766C36.5762 11.0703 36.3027 11.1172 35.9863 11.1172C35.584 11.1172 35.2188 11.0371 34.8906 10.877C34.5664 10.7129 34.3086 10.4883 34.1172 10.2031C33.9297 9.91406 33.8359 9.58594 33.8359 9.21875C33.8359 8.88672 33.8984 8.5918 34.0234 8.33398C34.1484 8.07617 34.332 7.85938 34.5742 7.68359C34.8203 7.50391 35.127 7.36914 35.4941 7.2793C35.8613 7.18555 36.2871 7.13867 36.7715 7.13867H37.75ZM44.793 4.66016V5.98438H41.6758V4.66016H44.793ZM46.0293 4.66016V11H44.3418V4.66016H46.0293ZM41.2539 4.66016H42.9121L42.7422 7.85938C42.7188 8.31641 42.6699 8.71875 42.5957 9.06641C42.5215 9.41406 42.4219 9.71094 42.2969 9.95703C42.1758 10.2031 42.0293 10.4043 41.8574 10.5605C41.6895 10.7129 41.4922 10.8242 41.2656 10.8945C41.043 10.9648 40.7969 11 40.5273 11H40.0117L39.9941 9.66992L40.2109 9.64648C40.3359 9.63477 40.4453 9.59961 40.5391 9.54102C40.6367 9.47852 40.7188 9.39062 40.7852 9.27734C40.8555 9.16016 40.9141 9.01367 40.9609 8.83789C41.0078 8.6582 41.0449 8.44727 41.0723 8.20508C41.1035 7.96289 41.125 7.68359 41.1367 7.36719L41.2539 4.66016ZM49.0176 8.64453L51.1445 4.66016H52.832V11H51.1445V7.00977L49.0176 11H47.3301V4.66016H49.0176V8.64453ZM59.4766 4.66016V11H57.7832V4.66016H59.4766ZM58.6797 7.37305V8.69141C58.5508 8.75781 58.3848 8.82031 58.1816 8.87891C57.9785 8.9375 57.7637 8.98438 57.5371 9.01953C57.3145 9.05078 57.1074 9.06641 56.916 9.06641C56.3066 9.06641 55.7832 8.98242 55.3457 8.81445C54.9121 8.64648 54.5781 8.38281 54.3438 8.02344C54.1094 7.66406 53.9922 7.20312 53.9922 6.64062V4.6543H55.6797V6.64062C55.6797 6.92578 55.7227 7.15039 55.8086 7.31445C55.8945 7.47461 56.0273 7.58789 56.207 7.6543C56.3906 7.7168 56.627 7.74805 56.916 7.74805C57.1191 7.74805 57.3164 7.73242 57.5078 7.70117C57.6992 7.66992 57.8906 7.62695 58.082 7.57227C58.2734 7.51758 58.4727 7.45117 58.6797 7.37305ZM62.459 8.64453L64.5859 4.66016H66.2734V11H64.5859V7.00977L62.459 11H60.7715V4.66016H62.459V8.64453ZM69.2559 8.64453L71.3828 4.66016H73.0703V11H71.3828V7.00977L69.2559 11H67.5684V4.66016H69.2559V8.64453Z" fill="white"/>
<path d="M2 7L5 10L10 4" stroke="#FF7800" stroke-width="2" stroke-linecap="round" stroke-linejoin="round"/>
</svg>
