<svg width="23" height="23" viewBox="0 0 23 23" fill="none" xmlns="http://www.w3.org/2000/svg">
<path d="M17.7285 3.35352L3.35352 17.7285L5.27018 19.6452L19.6452 5.27018L17.7285 3.35352ZM6.70768 3.83268C5.94519 3.83268 5.21392 4.13558 4.67475 4.67475C4.13558 5.21392 3.83268 5.94519 3.83268 6.70768C3.83268 7.47018 4.13558 8.20145 4.67475 8.74062C5.21392 9.27978 5.94519 9.58268 6.70768 9.58268C7.47018 9.58268 8.20145 9.27978 8.74062 8.74062C9.27978 8.20145 9.58268 7.47018 9.58268 6.70768C9.58268 5.94519 9.27978 5.21392 8.74062 4.67475C8.20145 4.13558 7.47018 3.83268 6.70768 3.83268ZM16.291 13.416C15.5285 13.416 14.7973 13.7189 14.2581 14.2581C13.7189 14.7973 13.416 15.5285 13.416 16.291C13.416 17.0535 13.7189 17.7848 14.2581 18.324C14.7973 18.8631 15.5285 19.166 16.291 19.166C17.0535 19.166 17.7848 18.8631 18.324 18.324C18.8631 17.7848 19.166 17.0535 19.166 16.291C19.166 15.5285 18.8631 14.7973 18.324 14.2581C17.7848 13.7189 17.0535 13.416 16.291 13.416Z" fill="white"/>
</svg>
