<svg width="19" height="21" viewBox="0 0 19 21" fill="none" xmlns="http://www.w3.org/2000/svg">
<g clip-path="url(#clip0_253_7342)">
<path d="M15.7414 17.675L18.1712 15.265C18.4681 14.9708 18.6348 14.5771 18.6348 14.1607C18.6348 13.7443 18.4703 13.3506 18.1712 13.0564L15.5564 10.4608C15.2595 10.1666 14.8599 10.0014 14.4397 10.0014C14.0172 10.0014 13.6221 10.1643 13.323 10.4608L11.2745 12.4884C10.1885 12.0265 9.20168 11.3628 8.36746 10.5332C7.52479 9.70271 6.86025 8.73191 6.38981 7.65475L8.43825 5.62717C8.73513 5.33299 8.90183 4.93924 8.90183 4.52286C8.9026 4.31748 8.86199 4.11402 8.78239 3.92439C8.70278 3.73477 8.58579 3.56279 8.43825 3.41855L5.82347 0.820703C5.52659 0.526522 5.12695 0.361328 4.70676 0.361328C4.28428 0.361327 3.88921 0.524259 3.59005 0.820703L1.16025 3.22846C0.653274 3.73083 0.363252 4.42329 0.363252 5.13385C0.363252 5.28094 0.37467 5.4235 0.39979 5.56833C0.897627 8.56445 2.5076 11.5379 4.92827 13.9389C7.35351 16.3376 10.3542 17.9307 13.3801 18.4286C14.2387 18.5711 15.1225 18.286 15.7414 17.675ZM13.6518 16.8242C10.9594 16.3829 8.27383 14.9482 6.09294 12.7871C3.91205 10.626 2.46421 7.96704 2.0189 5.29904C1.96181 4.96413 2.07599 4.62016 2.32034 4.37577L4.70676 2.011L7.23933 4.51833L4.49895 7.22932L4.4784 7.24969L4.66109 7.73848C5.21098 9.22054 6.07951 10.5664 7.20649 11.6828C8.33347 12.7991 9.69195 13.6593 11.1878 14.2037L11.681 14.3847L14.4374 11.6511L16.97 14.1584L14.5836 16.5232C14.3369 16.7676 13.9898 16.8807 13.6518 16.8242Z" fill="#FF7800"/>
</g>
<defs>
<clipPath id="clip0_253_7342">
<rect width="21" height="19" fill="white" transform="translate(19) rotate(90)"/>
</clipPath>
</defs>
</svg>
