<svg width="17" height="14" viewBox="0 0 17 14" fill="none" xmlns="http://www.w3.org/2000/svg">
<path fill-rule="evenodd" clip-rule="evenodd" d="M10.334 3.4824H7.667C7.49177 3.48356 7.32316 3.42389 7.19813 3.31646C7.0731 3.20902 7.00185 3.0626 7 2.90927V0.611524C7 0.294774 7.299 0.0375237 7.667 0.0375237H10.334C10.5092 0.0365911 10.6777 0.0964875 10.8026 0.204085C10.9274 0.311682 10.9984 0.458201 11 0.611524V2.90927C10.9993 2.98519 10.9816 3.06024 10.9478 3.13015C10.9139 3.20005 10.8647 3.26343 10.8028 3.31666C10.7409 3.36989 10.6677 3.41193 10.5873 3.44037C10.5068 3.46881 10.4208 3.48309 10.334 3.4824Z" fill="white"/>
<path fill-rule="evenodd" clip-rule="evenodd" d="M13.667 9.69828H16.334C16.701 9.69828 17 9.95203 17 10.2635V12.5245C16.9968 12.6766 16.925 12.8214 16.8002 12.9273C16.6755 13.0333 16.5078 13.0917 16.334 13.0898H13.667C13.4929 13.0921 13.3249 13.0339 13.1998 12.9279C13.0748 12.8219 13.0029 12.6768 13 12.5245V10.2635C13 9.95203 13.299 9.69828 13.667 9.69828Z" fill="white"/>
<path fill-rule="evenodd" clip-rule="evenodd" d="M7.667 9.69828H10.334C10.701 9.69828 11 9.95203 11 10.2635V12.5245C10.9968 12.6766 10.925 12.8214 10.8002 12.9273C10.6755 13.0333 10.5078 13.0917 10.334 13.0898H7.667C7.49292 13.0921 7.32489 13.0339 7.19983 12.9279C7.07477 12.8219 7.00289 12.6768 7 12.5245V10.2635C7 9.95203 7.299 9.69828 7.667 9.69828Z" fill="white"/>
<path fill-rule="evenodd" clip-rule="evenodd" d="M1.667 9.69828H4.334C4.701 9.69828 5 9.95203 5 10.2635V12.5245C4.99684 12.6766 4.92503 12.8214 4.80024 12.9273C4.67545 13.0333 4.50783 13.0917 4.334 13.0898H1.667C1.49292 13.0921 1.32489 13.0339 1.19983 12.9279C1.07477 12.8219 1.00289 12.6768 1 12.5245V10.2635C1 9.95203 1.299 9.69828 1.667 9.69828Z" fill="white"/>
<path fill-rule="evenodd" clip-rule="evenodd" d="M14.0475 7.84064H9.96948V8.69727H8.03148V7.84064H3.95848V8.69727H2.02148V6.15452H8.03148V4.39139H9.96948V6.15452H15.9585V8.69727H14.0475V7.84064Z" fill="white"/>
</svg>
