<svg width="14" height="24" viewBox="0 0 14 24" fill="none" xmlns="http://www.w3.org/2000/svg">
<path d="M7 2C3.13 2 0 5.13 0 9C0 14.25 7 22 7 22C7 22 14 14.25 14 9C14 5.13 10.87 2 7 2ZM7 11.5C6.33696 11.5 5.70107 11.2366 5.23223 10.7678C4.76339 10.2989 4.5 9.66304 4.5 9C4.5 8.33696 4.76339 7.70107 5.23223 7.23223C5.70107 6.76339 6.33696 6.5 7 6.5C7.66304 6.5 8.29893 6.76339 8.76777 7.23223C9.23661 7.70107 9.5 8.33696 9.5 9C9.5 9.66304 9.23661 10.2989 8.76777 10.7678C8.29893 11.2366 7.66304 11.5 7 11.5Z" fill="#FF7800"/>
</svg>
