<svg width="23" height="23" viewBox="0 0 23 23" fill="none" xmlns="http://www.w3.org/2000/svg">
<path d="M16.767 13.7835C16.4788 13.6376 15.0751 12.9526 14.8127 12.8548C14.5504 12.7614 14.3599 12.7125 14.1687 13.0007C13.9818 13.2818 13.4313 13.9251 13.2631 14.1127C13.0949 14.3003 12.9296 14.3146 12.6457 14.1874C12.3575 14.0415 11.4367 13.7418 10.3435 12.7614C9.48966 12.0017 8.92113 11.0659 8.75222 10.7777C8.58403 10.493 8.73353 10.332 8.87584 10.1897C9.00666 10.0589 9.16406 9.86053 9.30997 9.68803C9.44869 9.51553 9.49325 9.39981 9.59459 9.21294C9.68803 9.01097 9.63987 8.85356 9.56872 8.71125C9.49756 8.56894 8.92472 7.15803 8.68538 6.59597C8.45681 6.03822 8.21747 6.10938 8.04138 6.10938C7.87678 6.09428 7.68559 6.09428 7.49513 6.09428C7.30466 6.09428 6.99344 6.16544 6.73109 6.43856C6.46875 6.72678 5.72772 7.41534 5.72772 8.80828C5.72772 10.2048 6.75338 11.5561 6.89569 11.758C7.04159 11.9449 8.91322 14.8199 11.7846 16.0554C12.4696 16.3437 13.0015 16.5162 13.4169 16.6585C14.1019 16.8755 14.7272 16.8453 15.221 16.7742C15.7672 16.6843 16.9129 16.0813 17.153 15.4078C17.3966 14.7301 17.3966 14.1687 17.3255 14.0415C17.2543 13.9107 17.0674 13.8395 16.7792 13.7123L16.767 13.7835ZM11.5597 20.8438H11.5446C9.84472 20.8438 8.16428 20.383 6.69659 19.522L6.35231 19.3164L2.75856 20.2522L3.72456 16.7555L3.49241 16.3961C2.54327 14.887 2.03974 13.1405 2.03981 11.3577C2.03981 6.13956 6.31134 1.88312 11.5668 1.88312C14.1127 1.88312 16.5011 2.875 18.2979 4.67188C19.1844 5.54774 19.8875 6.59136 20.3663 7.74184C20.8451 8.89233 21.09 10.1266 21.0867 11.3728C21.0795 16.5873 16.8116 20.8438 11.5632 20.8438H11.5597ZM19.6643 3.30553C17.4778 1.19384 14.6028 0 11.5446 0C5.23681 0 0.100625 5.11391 0.0970313 11.3987C0.0970313 13.4054 0.621 15.3633 1.62437 17.0962L0 23L6.072 21.4166C7.7541 22.3235 9.63429 22.8005 11.5453 22.8052H11.5489C17.8602 22.8052 22.9964 17.6913 23 11.4023C23 8.35906 21.8133 5.49484 19.6499 3.34219L19.6643 3.30553Z" fill="white"/>
</svg>
