<svg width="29" height="29" viewBox="0 0 29 29" fill="none" xmlns="http://www.w3.org/2000/svg">
<path d="M21.9007 12.0641L22.8237 11.6792L21.9007 12.0641L22.8459 14.3307C22.9476 14.5746 23 14.8362 23 15.1005V17.5656C23 17.7027 22.9859 17.8395 22.9579 17.9738L23.9368 18.1779L22.9579 17.9738L22.3805 20.743C22.3245 21.0115 22.2963 21.2851 22.2963 21.5594V24.3583C22.2963 24.6042 22.3216 24.8495 22.3718 25.0902L23.3507 24.8861L22.3718 25.0902C22.5772 26.0752 21.8253 27 20.8191 27H19.6582C19.4776 27 19.2979 26.9755 19.1238 26.9273L18.8566 27.8909L19.1238 26.9273L17.5356 26.4869C17.1875 26.3904 16.828 26.3415 16.4668 26.3415H14.9082C14.547 26.3415 14.1875 26.3904 13.8394 26.4869L12.2512 26.9273L12.5184 27.8909L12.2512 26.9273C12.0771 26.9755 11.8974 27 11.7168 27H9.75H8.18085C7.1747 27 6.42284 26.0752 6.62821 25.0902L5.65236 24.8868L6.62821 25.0902C6.6784 24.8495 6.7037 24.6042 6.7037 24.3583V21.5594C6.7037 21.2851 6.67548 21.0115 6.61949 20.743L6.04211 17.9738L5.06316 18.1779L6.04211 17.9738C6.01411 17.8395 6 17.7027 6 17.5656V15.1005C6 14.8362 6.05237 14.5746 6.15407 14.3307L7.09927 12.0641C7.30268 11.5763 7.40741 11.053 7.40741 10.5245V8.35046C7.40741 7.82196 7.30268 7.2987 7.09927 6.81092L6.1396 4.50961C6.04745 4.28863 6 4.05157 6 3.81214C6 2.81132 6.81132 2 7.81214 2H9.34178C9.52238 2 9.70215 2.02446 9.87618 2.07272L11.4644 2.5131C11.8125 2.60961 12.172 2.65854 12.5332 2.65854H14.0918C14.453 2.65854 14.8125 2.60961 15.1606 2.5131L16.7488 2.07272C16.9229 2.02446 17.1026 2 17.2832 2H19.25H21.1879C22.1887 2 23 2.81132 23 3.81214C23 4.05157 22.9526 4.28863 22.8604 4.50961L21.9007 6.81092C21.6973 7.2987 21.5926 7.82196 21.5926 8.35046V10.5245C21.5926 11.053 21.6973 11.5763 21.9007 12.0641Z" stroke="white" stroke-width="2"/>
</svg>
