<svg width="34" height="34" viewBox="0 0 34 34" fill="none" xmlns="http://www.w3.org/2000/svg">
<path d="M7.08822 28.3327C19.1738 28.3497 28.3467 19.0677 28.334 7.08693C28.334 6.30352 27.6993 5.66602 26.9173 5.66602H23.1773C22.4761 5.66602 21.8796 6.18168 21.7762 6.87585C21.5296 8.54051 21.0453 10.1612 20.3383 11.6883L20.1924 12.0028C20.0944 12.2144 20.0733 12.4536 20.1328 12.6791C20.1923 12.9046 20.3286 13.1023 20.5182 13.2381C21.6771 14.0654 22.1191 15.73 21.2166 17.0277C20.0805 18.6616 18.6625 20.0801 17.029 21.2168C15.7299 22.1178 14.0653 21.6758 13.2394 20.5183C13.1038 20.3281 12.9059 20.1913 12.6801 20.1315C12.4542 20.0718 12.2146 20.0928 12.0026 20.1911L11.6896 20.3356C10.1624 21.0439 8.54172 21.5284 6.87714 21.7749C6.18297 21.8783 5.6673 22.4748 5.6673 23.1774V26.916C5.6673 27.1022 5.70399 27.2865 5.77528 27.4585C5.84656 27.6304 5.95104 27.7867 6.08274 27.9183C6.21444 28.0498 6.37078 28.1541 6.54282 28.2253C6.71486 28.2964 6.89923 28.3329 7.08539 28.3327H7.08822Z" fill="white"/>
</svg>
