<svg width="25" height="37" viewBox="0 0 25 37" fill="none" xmlns="http://www.w3.org/2000/svg">
<path d="M23.9611 23.2203L24.9416 23.4166L23.9611 23.2203L23.1519 27.2621C23.1001 27.5207 23.0741 27.7837 23.0741 28.0473V32.0776C23.0741 32.3413 23.1001 32.6043 23.1519 32.8629L23.301 33.6074C23.5487 34.8451 22.6021 36 21.3399 36H19.1745C18.9868 36 18.8 35.9736 18.6196 35.9215L16.3103 35.2546C15.9496 35.1504 15.576 35.0976 15.2005 35.0976H12.9245C12.549 35.0976 12.1754 35.1504 11.8147 35.2546L9.50539 35.9215C9.32502 35.9736 9.13823 36 8.9505 36H6.25H3.66013C2.39788 36 1.45126 34.8451 1.69904 33.6074L1.8481 32.8629C1.89986 32.6043 1.92593 32.3413 1.92593 32.0776V28.0473C1.92593 27.7837 1.89986 27.5207 1.8481 27.2621L1.03891 23.2203C1.01303 23.091 1 22.9595 1 22.8277V19.0783C1 18.8236 1.04864 18.5713 1.1433 18.3349L2.56525 14.7836C2.75457 14.3107 2.85185 13.8061 2.85185 13.2967V9.82828C2.85185 9.31894 2.75457 8.81429 2.56525 8.34144L1.1433 4.79014C1.04864 4.55371 1 4.30139 1 4.04672V3C1 1.89543 1.89543 1 3 1H5.8255C6.01323 1 6.20003 1.02643 6.38039 1.07852L8.68972 1.74541C9.05044 1.84958 9.42404 1.90244 9.7995 1.90244H12.0755C12.451 1.90244 12.8246 1.84958 13.1853 1.74541L15.4946 1.07852C15.675 1.02643 15.8618 1 16.0495 1H18.75H22C23.1046 1 24 1.89543 24 3V4.04672C24 4.30138 23.9514 4.55371 23.8567 4.79014L22.4348 8.34144C22.2454 8.81429 22.1481 9.31894 22.1481 9.82828V13.2967C22.1481 13.8061 22.2454 14.3107 22.4348 14.7836L23.8567 18.3349C23.9514 18.5713 24 18.8236 24 19.0783V22.8277C24 22.9595 23.987 23.091 23.9611 23.2203Z" stroke="#4C4C4C" stroke-width="2"/>
</svg>
