<svg width="18" height="18" viewBox="0 0 18 18" fill="none" xmlns="http://www.w3.org/2000/svg">
<path d="M13.9906 13.1963L16.1877 15.3923C16.2902 15.4984 16.3469 15.6405 16.3456 15.788C16.3443 15.9355 16.2852 16.0766 16.1809 16.1809C16.0766 16.2852 15.9355 16.3443 15.788 16.3456C15.6405 16.3469 15.4984 16.2902 15.3923 16.1877L13.1952 13.9906C11.7594 15.2207 9.90303 15.8469 8.01551 15.7378C6.12799 15.6287 4.35609 14.7928 3.07162 13.4054C1.78716 12.018 1.08997 10.1871 1.12636 8.29677C1.16274 6.40645 1.92988 4.60369 3.26678 3.26678C4.60369 1.92988 6.40645 1.16274 8.29677 1.12636C10.1871 1.08997 12.018 1.78716 13.4054 3.07162C14.7928 4.35609 15.6287 6.12799 15.7378 8.01551C15.8469 9.90303 15.2207 11.7594 13.9906 13.1952V13.1963ZM8.43759 14.6251C10.0786 14.6251 11.6524 13.9732 12.8128 12.8128C13.9732 11.6524 14.6251 10.0786 14.6251 8.43759C14.6251 6.79656 13.9732 5.22275 12.8128 4.06237C11.6524 2.90199 10.0786 2.25009 8.43759 2.25009C6.79656 2.25009 5.22275 2.90199 4.06237 4.06237C2.90199 5.22275 2.25009 6.79656 2.25009 8.43759C2.25009 10.0786 2.90199 11.6524 4.06237 12.8128C5.22275 13.9732 6.79656 14.6251 8.43759 14.6251Z" fill="white"/>
</svg>
